<svg xmlns="http://www.w3.org/2000/svg" viewBox="0 0 142.39 142.39">
  <g id="Layer_2" data-name="Layer 2">
    <g id="Layer_4_Image" data-name="Layer 4 Image">
      <g id="art_board" data-name="art board">
        <path d="M55.31,51a8.14,8.14,0,0,0-8.09,8.19,8.36,8.36,0,0,0,8.09,8.26c4,.11,8.07-4.05,8.1-8.29A8.21,8.21,0,0,0,55.31,51Z"/>
        <path d="M71.2,0h0A71.41,71.41,0,0,0,0,71.2H0a71.41,71.41,0,0,0,71.2,71.19h0A71.41,71.41,0,0,0,142.39,71.2h0A71.41,71.41,0,0,0,71.2,0ZM82,111.2c-15.34,3.44-29.3.63-40.7-10.41C28.85,88.71,23.67,67,39.18,51.3c5.35-5.42,11.22-9.76,19-10.22,10-.59,13.71,2.9,14.93,10.77A10,10,0,0,1,73,54l-.92.06c-.33-1.28-.7-2.54-1-3.83-.93-4.42-3.31-6.79-7.81-7.43a23.07,23.07,0,0,0-17,4.36c-6.06,4.24-10.71,9.6-13.2,16.55-4.22,11.73-1.37,22.46,5.87,32C46.77,106,57.47,110.88,70.48,110.8c5.38,0,10.62-.54,15.67-2.54,17.25-6.81,22.5-26.4,10.95-41-.88-1.12-1.71-2.28-2.57-3.42l.54-.59a20.51,20.51,0,0,1,2.52,2.19C112,82.74,103.93,106.29,82,111.2ZM56.33,91a31.08,31.08,0,0,0,2.85-1.43A22.32,22.32,0,0,0,61.3,88l-.59-.88L49.54,91c1.28-4.12,2.09-8.07,3.73-11.64s5.89-4.07,9.09-1.5c1,.79,2,1.56,2.88,2.43C67.9,82.78,68,84.1,65.8,87A11.71,11.71,0,0,1,56.33,91ZM65,100a4.61,4.61,0,0,1-5,3.52A8,8,0,0,1,56,102,5.92,5.92,0,0,1,54,98.05C54,95.92,55.8,95,58.91,95c.6.19,1.9.53,3.16,1C63.93,96.64,65.42,97.68,65,100ZM55.4,68.79c-5.72,0-9.83-4.09-9.79-9.67a9.69,9.69,0,0,1,9.68-9.53,10.11,10.11,0,0,1,9.8,9.88A10,10,0,0,1,55.4,68.79Zm-9,11.54c.14,2-2.72,5.07-4.78,5.09a4.8,4.8,0,0,1-4.32-4.33,4.91,4.91,0,0,1,4.32-4.64C43.72,76.38,46.25,78.44,46.38,80.33ZM89,76.6c-1.22-.27-2.21-1.6-3.31-2.46,1.75-1.32,3.46-2.71,5.31-3.86.19-.12,1.26,1.19,1.55,1.47C92.46,74.82,90.81,77,89,76.6Zm7.19,4.7c1.07.2,1.81,2.19,2.62,3.31-.86,2.65-1.22,4.94-2.35,6.75a5.19,5.19,0,0,1-3.93,2.09c-.8,0-2.21-2.24-2.13-3.37a16.91,16.91,0,0,1,2-6.75A4.67,4.67,0,0,1,96.15,81.3ZM85.55,96.69a32.63,32.63,0,0,0-3.79,5.3c-1.34,2.47-3.49,3.17-5.6,3.45-3.2-.08-4.66-1.86-4.14-4.59.86-4.52,8.67-9,13-7.51C86.69,94,86.8,95.21,85.55,96.69Zm25.16-59.9c-9.11,11-18.14,22-27.6,32.6C80,72.88,75.74,75.33,72,78.2c-3,2.27-4-1-5.65-2.16-1.52-1.08-1.59-2.25-.54-3.94C76.2,55.36,89.91,41.87,106.24,31a7.92,7.92,0,0,1,4.47-1.15c.7,0,1.34,1.57,2.1,2.55C112,34.07,111.65,35.67,110.71,36.79Z"/>
      </g>
    </g>
  </g>
</svg>
