<svg xmlns="http://www.w3.org/2000/svg" viewBox="0 0 142.39 142.39">
  <g id="Layer_2" data-name="Layer 2">
    <g id="Layer_4_Image" data-name="Layer 4 Image">
      <g id="lightbulb">
        <path d="M84.57,40.26a20.44,20.44,0,0,0-14.33-4.64,19.21,19.21,0,0,0-12.51,5.54,20.19,20.19,0,0,0-6.48,16.42c.24,4.22,2,7.85,3.69,11.53,2.44,5.37,5.41,10.52,6.37,16.45A1.76,1.76,0,0,0,63,87.21c5.55.89,6.5.12,6.5-5.41V78c0-1.65,0-3.3,0-5,0-2.52.59-3.33,2.2-3.34s1.9.6,1.94,3.16c0,1.75,0,3.5,0,5.24,0,1.16,0,2.33,0,3.49-.06,6.12,0,5.65,6.46,5.58,1.4,0,2-.74,2.24-2.12a39.28,39.28,0,0,1,1.92-7c1.39-3.41,3.26-6.61,4.62-10s2.76-6.7,3.2-10.18C93,50.75,90.1,44.85,84.57,40.26ZM66.81,54.08c1.64,0,3.28,0,4.92,0s3.08-.08,4.62,0,2.45.82,2.39,2.35-1.2,2.14-2.58,2.15c-3.09,0-6.17,0-9.26,0a2.26,2.26,0,1,1-.09-4.51Zm9.84,12c-1.64.12-3.29,0-4.94,0v0c-1.55,0-3.1,0-4.65,0A2.19,2.19,0,0,1,64.56,64a2.09,2.09,0,0,1,2.25-2.19q4.93-.13,9.87,0a2,2,0,0,1,2.07,2A2.08,2.08,0,0,1,76.65,66.11Z"/>
        <path d="M71.2,0h0A71.41,71.41,0,0,0,0,71.2H0a71.41,71.41,0,0,0,71.2,71.19h0A71.41,71.41,0,0,0,142.39,71.2h0A71.41,71.41,0,0,0,71.2,0ZM83.69,101.49c.33.81-.38,2-.71,3.5-.08-.19,0,.08.15.33,1.38,2.77.73,4-2.35,4a8.89,8.89,0,0,0-5.94,1.76,5.14,5.14,0,0,1-6.5-.13,8.17,8.17,0,0,0-5.68-1.62,4.77,4.77,0,0,1-2-.25c-1.7-.65-1.74-1.72-.12-4.4-.93-1.36-1.9-2.82-.37-4.55.25-.28-.15-1.23-.39-1.82-.76-1.89-.27-3,1.67-3.37a9.71,9.71,0,0,1,2-.12H80a9,9,0,0,1,2,.12c1.59.37,2.37,1.6,1.66,3A3.74,3.74,0,0,0,83.69,101.49ZM95.56,63.33c-1.32,4-3.27,7.86-5,11.76-1.64,3.73-3.39,7.37-3.93,11.5-.5,3.82-2.23,5.16-6.07,5.24-3.1.06-6.21,0-9.31,0-2.82,0-5.63,0-8.45,0-4-.06-5.66-1.59-6.09-5.48s-2.09-7.23-3.63-10.68c-1.82-4.07-4-8-5.33-12.24A24.65,24.65,0,0,1,64.34,32.26c9-2.61,17.57-1,24.49,5.85C96,45.15,98.73,53.57,95.56,63.33Z"/>
      </g>
    </g>
  </g>
</svg>
