<svg xmlns="http://www.w3.org/2000/svg" viewBox="0 0 142.39 142.39">
  <g id="Layer_2" data-name="Layer 2">
    <g id="Layer_4_Image" data-name="Layer 4 Image">
      <path id="heart" d="M71.2,0h0A71.41,71.41,0,0,0,0,71.2H0a71.41,71.41,0,0,0,71.2,71.19h0A71.41,71.41,0,0,0,142.39,71.2h0A71.41,71.41,0,0,0,71.2,0ZM98.56,76.18C90.32,85,81.41,93.25,72.79,101.75c-1,1-1.93,1.37-3.19.15-7.91-7.69-16-15.19-23.79-23a32.45,32.45,0,0,1-8.48-14C33.13,50,45.84,37.29,58.66,40.11c4,.88,7.16,3.24,10,6.15l2.11,2.23c3.15-2.47,5.78-5.14,8.93-6.88,9-5,21.29.39,24.94,10.8C107.81,61.62,104.71,69.59,98.56,76.18Z"/>
    </g>
  </g>
</svg>
