<svg xmlns="http://www.w3.org/2000/svg" viewBox="0 0 142.39 142.39">
  <g id="Layer_2" data-name="Layer 2">
    <g id="Layer_4_Image" data-name="Layer 4 Image">
      <g id="playground">
        <path d="M71.2,0h0A71.41,71.41,0,0,0,0,71.2H0a71.41,71.41,0,0,0,71.2,71.19h0A71.41,71.41,0,0,0,142.39,71.2h0A71.41,71.41,0,0,0,71.2,0Zm42.36,105.82a36.22,36.22,0,0,1-4.76.07L110,110.6a8.35,8.35,0,0,1-6.41.18c-.85-.29-1.51-1.7-1.9-2.73-3.52-9.24-7-18.51-10.44-27.77C90.87,79.2,90.34,78.14,90,77c-.69-2.55-2.34-3.65-4.92-3.58-1.84,0-3.69,0-5.53,0-2.62.06-3,.41-3,3.11q0,14.11,0,28.24c0,1.16,0,2.33,0,3.49-.14,2.09-.62,2.44-3.07,2.42-2.29,0-2.59-.22-2.6-2.45,0-7.28,0-14.56,0-21.84V75.22a13.42,13.42,0,0,0-2.07,1.16A49.79,49.79,0,0,0,57.25,91.19c-5.5,10.45-14.43,16.44-25.69,19.26a1.86,1.86,0,0,1-.57.11c-1.11-.11-3,.09-3.19-.42a6.71,6.71,0,0,1-.27-4.16c.19-.7,1.58-1.33,2.52-1.52a31.59,31.59,0,0,0,13.67-6.79,27.74,27.74,0,0,0,7.6-9.08c4.39-8.93,10.55-16.2,19.33-21.1a2.57,2.57,0,0,0,1.2-1.78c.08-6.57.05-13.15.05-19.95L69,45c.69-1.88,11.22-12.46,14-14l14.39,13.7c-3.9.35-3.35,2.78-3.34,5,0,4.95,0,9.89,0,14.84,0,3.56.06,3.59,3.52,3.68a10.82,10.82,0,0,1,2.85.37,1.63,1.63,0,0,1,.84,1.31,1.67,1.67,0,0,1-1.13,1c-1.29.24-2.62.28-4.18.42a17.23,17.23,0,0,0,2.6,7.54c.31.55,1.5.72,2.31.82,1.15.15,2.35-.08,3.47.16a2.25,2.25,0,0,1,1.28,1.48c.08.27-.75,1.08-1.26,1.17a36.63,36.63,0,0,1-4.27.34,20.51,20.51,0,0,0,2.78,7.49c.34.62,1.63.87,2.52,1,1.14.18,2.34,0,3.48.14.52.08,1.39.88,1.32,1.11a2.47,2.47,0,0,1-1.28,1.54,29.45,29.45,0,0,1-4.25.44,15.62,15.62,0,0,0,2.83,7.41c.46.63,1.67.84,2.58,1,1.14.17,2.35-.08,3.48.15.57.12,1,.87,1.53,1.34C114.57,105,114.12,105.75,113.56,105.82Z"/>
        <path d="M82.88,47.13c-3.7,0-6.2,2.25-6.27,5.72a5.69,5.69,0,0,0,5.94,6.06c3.61.08,6.2-2.26,6.32-5.71A5.88,5.88,0,0,0,82.88,47.13Z"/>
      </g>
    </g>
  </g>
</svg>
